<?xml version="1.0" encoding="UTF-8"?>
<svg id="_レイヤー_2" data-name="レイヤー 2" xmlns="http://www.w3.org/2000/svg" viewBox="0 0 207.34 65.31">
  <defs>
    <style>
      .cls-1 {
        isolation: isolate;
      }

      .cls-2 {
        fill: #5fb636;
      }

      .cls-2, .cls-3 {
        stroke-width: 0px;
      }

      .cls-3 {
        fill: #573f1c;
      }
    </style>
  </defs>
  <g id="_レイヤー_1-2" data-name="レイヤー 1">
    <g>
      <path class="cls-2" d="M7.27,4.76c.67,0,1.3.26,1.77.73l3.82,3.83,2.08,2.08,3.37-3.37-2.08-2.08h0s-3.83-3.82-3.83-3.82c-1.37-1.37-3.19-2.13-5.13-2.13S3.5.76,2.13,2.13c-2.74,2.74-2.74,7.53,0,10.27l10.73,10.73h0s2.07,2.08,2.07,2.08l3.37-3.37-2.07-2.07h0S5.5,9.03,5.5,9.03c-.47-.48-.73-1.1-.73-1.77s.26-1.3.73-1.77c.47-.47,1.1-.73,1.77-.73ZM37.41,27.14l-10.73-10.73-2.08-2.08-3.37,3.37,2.07,2.08,10.73,10.73c.47.47.73,1.1.73,1.77s-.26,1.3-.73,1.77c-.47.47-1.1.73-1.77.73s-1.29-.26-1.77-.73l-3.82-3.83-2.07-2.08-3.37,3.37,2.08,2.08,3.83,3.82c1.37,1.37,3.19,2.13,5.13,2.13s3.76-.76,5.13-2.13c2.74-2.74,2.74-7.53,0-10.27Z"/>
      <path class="cls-2" d="M37.41,2.13c-2.74-2.74-7.53-2.74-10.27,0l-10.73,10.73h0s-2.08,2.06-2.08,2.06l3.37,3.37,2.07-2.07h.01s10.73-10.72,10.73-10.72c.47-.47,1.1-.73,1.77-.73s1.3.26,1.77.73c.47.47.73,1.1.73,1.77s-.26,1.29-.73,1.77l-3.83,3.82h0s-2.07,2.07-2.07,2.07l3.37,3.37,2.07-2.08,3.83-3.82c1.37-1.37,2.13-3.19,2.13-5.13s-.75-3.76-2.13-5.13ZM19.76,23.31h0l-10.73,10.73c-.47.47-1.1.73-1.77.73s-1.3-.26-1.77-.73c-.47-.47-.73-1.1-.73-1.77s.26-1.3.73-1.77l3.83-3.82h0l2.08-2.07-3.37-3.37-2.08,2.07-3.83,3.83c-1.37,1.37-2.13,3.2-2.13,5.13s.76,3.76,2.13,5.13c2.74,2.74,7.53,2.74,10.27,0l10.73-10.73h0l2.08-2.07-3.37-3.37-2.07,2.07Z"/>
      <g id="Prices_of_Popular_Plans" data-name="Prices of Popular Plans" class="cls-1">
        <g class="cls-1">
          <path class="cls-3" d="M49.47,36.41c-.34,0-.61-.11-.83-.32-.21-.21-.32-.49-.32-.83V5.36c0-.34.11-.61.32-.83.21-.21.49-.32.83-.32h5.11c.34,0,.61.11.83.32.21.21.32.49.32.83v24.89h14.26c.34,0,.61.11.83.32.21.21.32.49.32.83v3.86c0,.34-.11.61-.32.83-.21.21-.49.32-.83.32h-20.52Z"/>
          <path class="cls-3" d="M75.83,8.81c-.31,0-.57-.11-.78-.32-.21-.21-.32-.49-.32-.83v-3.68c0-.34.11-.62.32-.85.21-.23.48-.34.78-.34h4.83c.34,0,.62.12.85.34.23.23.35.51.35.85v3.68c0,.34-.12.61-.35.83-.23.21-.51.32-.85.32h-4.83ZM75.97,36.41c-.31,0-.57-.11-.78-.32-.22-.21-.32-.49-.32-.83V13.64c0-.34.11-.61.32-.83.21-.21.48-.32.78-.32h4.6c.34,0,.61.11.83.32.21.21.32.49.32.83v21.62c0,.34-.11.61-.32.83s-.49.32-.83.32h-4.6Z"/>
          <path class="cls-3" d="M88.57,36.41c-.31,0-.57-.11-.78-.32-.22-.21-.32-.49-.32-.83V13.64c0-.34.11-.61.32-.83.21-.21.48-.32.78-.32h4.51c.34,0,.61.11.83.32.21.21.32.49.32.83v1.79c.8-.98,1.82-1.79,3.08-2.44,1.26-.64,2.79-.97,4.6-.97s3.4.41,4.76,1.22c1.36.81,2.44,1.99,3.22,3.54.78,1.55,1.17,3.43,1.17,5.63v12.83c0,.34-.12.61-.35.83-.23.21-.5.32-.8.32h-4.88c-.34,0-.61-.11-.83-.32-.21-.21-.32-.49-.32-.83v-12.56c0-1.62-.39-2.89-1.17-3.79-.78-.9-1.92-1.36-3.43-1.36s-2.59.45-3.45,1.36c-.86.91-1.29,2.17-1.29,3.79v12.56c0,.34-.11.61-.32.83s-.48.32-.78.32h-4.88Z"/>
          <path class="cls-3" d="M127.81,46.53c-2.27,0-4.16-.3-5.66-.9-1.5-.6-2.69-1.32-3.56-2.16s-1.5-1.68-1.86-2.51-.57-1.47-.6-1.93c-.03-.34.08-.61.32-.83.25-.21.52-.32.83-.32h4.92c.28,0,.51.07.71.21.2.14.36.38.48.71.15.37.37.76.64,1.17.28.41.7.76,1.26,1.03.57.28,1.33.41,2.28.41,1.07,0,1.96-.15,2.67-.46.71-.31,1.23-.83,1.59-1.56.35-.74.53-1.73.53-2.99v-3.08c-.74.8-1.66,1.46-2.78,1.98-1.12.52-2.49.78-4.12.78s-3-.25-4.21-.76c-1.21-.51-2.22-1.23-3.01-2.16-.8-.93-1.41-2.06-1.84-3.38-.43-1.32-.67-2.81-.74-4.46-.03-.83-.03-1.64,0-2.44.06-1.59.31-3.05.74-4.37s1.04-2.46,1.84-3.43c.8-.97,1.8-1.72,3.01-2.25,1.21-.54,2.61-.8,4.21-.8,1.69,0,3.13.32,4.32.97,1.2.64,2.18,1.44,2.94,2.39v-1.75c0-.31.11-.58.32-.81.21-.23.48-.34.78-.34h4.51c.31,0,.58.12.8.34s.35.5.35.81l.05,22.13c0,2.3-.45,4.25-1.33,5.84-.89,1.59-2.2,2.81-3.93,3.66-1.73.84-3.89,1.26-6.46,1.26ZM127.58,30.7c1.1,0,2-.25,2.69-.76.69-.51,1.2-1.15,1.54-1.93.34-.78.52-1.6.55-2.46.03-.34.05-.82.05-1.45s-.02-1.11-.05-1.45c-.03-.86-.21-1.68-.55-2.46-.34-.78-.85-1.42-1.54-1.91-.69-.49-1.59-.74-2.69-.74-1.17,0-2.09.25-2.76.76-.67.51-1.17,1.17-1.47,2-.31.83-.49,1.73-.55,2.71-.03.74-.03,1.46,0,2.16.06,1.01.25,1.93.55,2.76s.8,1.5,1.47,2,1.59.76,2.76.76Z"/>
          <path class="cls-3" d="M153.66,36.87c-1.78,0-3.35-.41-4.71-1.22-1.37-.81-2.42-1.99-3.17-3.54-.75-1.55-1.13-3.43-1.13-5.63v-12.83c0-.34.11-.61.32-.83.21-.21.48-.32.78-.32h4.88c.34,0,.61.11.83.32.21.21.32.49.32.83v12.56c0,3.43,1.5,5.15,4.51,5.15,1.44,0,2.58-.45,3.43-1.36.84-.9,1.26-2.17,1.26-3.79v-12.56c0-.34.11-.61.32-.83.21-.21.49-.32.83-.32h4.88c.31,0,.57.11.78.32.21.21.32.49.32.83v21.62c0,.34-.11.61-.32.83s-.48.32-.78.32h-4.51c-.34,0-.61-.11-.83-.32-.21-.21-.32-.49-.32-.83v-1.79c-.8,1.1-1.83,1.95-3.08,2.53-1.26.58-2.79.87-4.6.87Z"/>
          <path class="cls-3" d="M180.85,36.87c-1.63,0-3.08-.31-4.37-.94-1.29-.63-2.32-1.48-3.08-2.55-.77-1.07-1.15-2.27-1.15-3.59,0-2.18.88-3.89,2.64-5.15,1.76-1.26,4.09-2.12,6.97-2.58l6.03-.87v-.83c0-1.2-.28-2.12-.83-2.76-.55-.64-1.52-.97-2.9-.97-1.01,0-1.83.2-2.44.6s-1.09.92-1.43,1.56c-.25.4-.6.6-1.06.6h-4.37c-.34,0-.6-.1-.78-.3-.18-.2-.26-.44-.23-.71,0-.52.2-1.13.6-1.84.4-.71,1.01-1.4,1.84-2.09.83-.69,1.89-1.27,3.17-1.73s2.87-.69,4.74-.69,3.59.23,4.97.69,2.48,1.1,3.31,1.93c.83.83,1.44,1.79,1.84,2.88.4,1.09.6,2.26.6,3.52v14.21c0,.34-.11.61-.32.83-.21.21-.49.32-.83.32h-4.51c-.31,0-.57-.11-.78-.32-.21-.21-.32-.49-.32-.83v-1.7c-.4.58-.94,1.13-1.61,1.63-.67.51-1.48.91-2.42,1.22s-2.03.46-3.29.46ZM182.69,32.08c1.01,0,1.92-.21,2.71-.64.8-.43,1.43-1.09,1.89-1.98.46-.89.69-2.01.69-3.36v-.78l-4.28.69c-1.66.28-2.87.69-3.63,1.24-.77.55-1.15,1.23-1.15,2.02,0,.58.18,1.09.53,1.52.35.43.82.75,1.4.97.58.22,1.2.32,1.84.32Z"/>
          <path class="cls-3" d="M201.64,36.41c-.34,0-.61-.11-.83-.32-.22-.21-.32-.49-.32-.83V4.9c0-.34.11-.61.32-.83.21-.21.49-.32.83-.32h4.6c.31,0,.57.11.78.32.21.21.32.49.32.83v30.36c0,.34-.11.61-.32.83s-.48.32-.78.32h-4.6Z"/>
        </g>
      </g>
      <g id="Prices_of_Popular_Plans-2" data-name="Prices of Popular Plans" class="cls-1">
        <g class="cls-1">
          <path class="cls-3" d="M1.21,62.23c-.1,0-.19-.03-.25-.1s-.1-.15-.1-.25v-9.1c0-.1.03-.19.1-.25s.15-.1.25-.1h6.34c.1,0,.19.03.25.1s.1.15.1.25v1.12c0,.09-.03.17-.1.24s-.15.1-.25.1H3.02v2.2h4.23c.1,0,.19.03.25.1s.1.15.1.25v1.04c0,.09-.03.17-.1.24s-.15.1-.25.1H3.02v2.27h4.65c.1,0,.19.03.25.1s.1.15.1.25v1.11c0,.1-.03.19-.1.25s-.15.1-.25.1H1.21Z"/>
          <path class="cls-3" d="M9.41,62.23c-.08,0-.16-.03-.22-.09s-.09-.13-.09-.22c0-.03,0-.06.02-.11.01-.04.03-.08.06-.12l2.37-3.21-2.17-3.01s-.05-.07-.06-.11c-.01-.04-.02-.07-.02-.11,0-.08.03-.16.09-.22.06-.06.13-.09.22-.09h1.46c.11,0,.2.03.26.08.06.06.1.11.13.15l1.44,1.96,1.44-1.95s.08-.1.14-.16c.06-.06.14-.09.27-.09h1.39c.08,0,.16.03.22.09.06.06.09.13.09.22,0,.04,0,.07-.01.11,0,.04-.03.08-.07.11l-2.21,3.02,2.39,3.19s.05.08.06.11c.01.04.02.08.02.11,0,.08-.03.16-.09.22s-.13.09-.22.09h-1.53c-.1,0-.18-.03-.24-.08-.06-.05-.1-.1-.14-.15l-1.55-2.07-1.58,2.07s-.07.08-.13.14-.14.08-.25.08h-1.48Z"/>
          <path class="cls-3" d="M18.29,64.89c-.1,0-.19-.03-.25-.1-.07-.06-.1-.15-.1-.25v-9.24c0-.1.03-.19.1-.25s.15-.1.25-.1h1.33c.1,0,.19.03.25.1s.1.15.1.25v.53c.22-.3.51-.54.87-.73.35-.19.8-.29,1.33-.29.49,0,.91.08,1.27.23.36.15.66.37.91.66.25.29.44.63.57,1.03s.21.85.23,1.36c0,.18.01.34.01.5s0,.33-.01.52c0,.48-.08.92-.22,1.32s-.33.75-.58,1.04c-.25.29-.56.51-.92.67-.36.16-.78.24-1.27.24s-.89-.09-1.24-.26-.64-.41-.86-.71v3.14c0,.1-.03.19-.1.25-.07.07-.15.1-.24.1h-1.44ZM21.54,60.69c.35,0,.63-.08.84-.23.21-.15.35-.36.44-.61.09-.25.14-.53.16-.83.02-.29.02-.58,0-.87-.02-.3-.07-.57-.16-.83-.09-.25-.24-.46-.44-.61-.21-.15-.49-.23-.84-.23s-.63.08-.84.24c-.21.16-.37.36-.46.6-.09.24-.15.5-.17.78,0,.17-.01.34-.01.52s0,.35.01.53c0,.26.07.51.18.74.11.23.27.42.48.57s.48.22.82.22Z"/>
          <path class="cls-3" d="M30.04,62.37c-1.07,0-1.92-.3-2.55-.9-.63-.6-.96-1.46-1-2.6v-.6c.04-.72.2-1.34.49-1.86.29-.52.7-.91,1.22-1.19.52-.28,1.13-.41,1.83-.41.78,0,1.44.16,1.97.48.53.32.92.76,1.19,1.32.27.56.4,1.19.4,1.91v.32c0,.09-.03.17-.1.24-.07.07-.15.1-.25.1h-4.58v.11c0,.3.07.57.17.82s.26.45.46.59c.2.15.44.22.72.22.23,0,.42-.03.57-.1.15-.06.27-.14.37-.24.1-.09.17-.17.22-.24.08-.09.15-.15.2-.17s.13-.04.25-.04h1.46c.09,0,.17.03.23.08.06.05.09.12.08.22,0,.15-.09.33-.23.55-.15.22-.36.43-.64.64-.28.21-.63.38-1.04.52-.42.14-.89.21-1.44.21ZM28.65,57.9h2.74v-.03c0-.34-.05-.63-.16-.88-.11-.25-.26-.44-.47-.58-.21-.14-.45-.21-.74-.21s-.54.07-.74.21c-.21.14-.36.33-.47.58-.11.25-.16.54-.16.88v.03Z"/>
          <path class="cls-3" d="M35.45,62.23c-.09,0-.17-.03-.24-.1s-.1-.15-.1-.25v-6.58c0-.09.03-.18.1-.25.07-.07.14-.11.24-.11h1.37c.09,0,.18.04.25.11.07.07.1.15.1.25v.56c.23-.29.52-.51.86-.67.34-.16.74-.24,1.18-.24h.6c.09,0,.17.03.24.1.06.07.1.15.1.25v1.2c0,.1-.03.19-.1.25-.07.07-.15.1-.24.1h-1.23c-.41,0-.73.11-.97.34-.23.23-.35.55-.35.97v3.71c0,.1-.03.19-.1.25s-.15.1-.25.1h-1.47Z"/>
          <path class="cls-3" d="M44.92,62.23c-.58,0-1.07-.1-1.48-.29s-.72-.49-.93-.89-.31-.91-.31-1.51v-2.94h-1.09c-.1,0-.19-.03-.25-.1-.07-.07-.1-.15-.1-.25v-.95c0-.1.03-.19.1-.25.06-.07.15-.1.25-.1h1.09v-2.31c0-.1.04-.19.1-.25.07-.07.15-.1.25-.1h1.37c.1,0,.19.03.25.1s.1.15.1.25v2.31h1.75c.09,0,.17.03.24.1s.1.15.1.25v.95c0,.1-.03.19-.1.25s-.14.1-.24.1h-1.75v2.77c0,.36.06.63.19.83.13.2.35.3.67.3h1.02c.09,0,.17.03.24.1s.1.14.1.24v1.04c0,.1-.03.19-.1.25s-.14.1-.24.1h-1.22Z"/>
          <path class="cls-3" d="M50.7,62.37c-.58,0-1.08-.07-1.49-.2-.42-.13-.75-.3-1.01-.5-.26-.2-.45-.39-.57-.6-.13-.2-.19-.37-.2-.51,0-.1.02-.19.1-.25.07-.07.15-.1.22-.1h1.36s.06,0,.08.01c.03,0,.06.03.08.07.12.08.25.18.38.29.13.11.28.2.46.27.17.08.39.11.65.11.31,0,.57-.06.78-.19s.32-.31.32-.54c0-.17-.05-.31-.15-.42-.1-.11-.28-.21-.55-.31-.27-.09-.67-.2-1.2-.31-.5-.11-.93-.26-1.29-.45-.35-.19-.62-.42-.8-.71-.18-.29-.27-.63-.27-1.03,0-.36.11-.71.34-1.05.23-.34.57-.61,1.02-.83.45-.22,1.01-.33,1.68-.33.51,0,.96.06,1.35.19s.71.29.97.48.46.39.6.59c.13.2.21.38.22.53,0,.09-.02.17-.08.24-.07.07-.14.1-.22.1h-1.25s-.09,0-.13-.02-.07-.04-.1-.06c-.11-.08-.23-.16-.34-.26-.12-.1-.25-.18-.41-.26-.16-.07-.36-.11-.62-.11-.31,0-.54.07-.71.2-.16.14-.25.31-.25.51,0,.13.04.25.13.36.08.11.26.21.52.31.26.09.66.19,1.19.29.63.11,1.14.28,1.51.5.37.22.64.48.8.78s.25.61.25.94c0,.44-.13.83-.39,1.17-.26.34-.64.61-1.14.8-.5.19-1.11.29-1.84.29Z"/>
          <path class="cls-3" d="M59.09,53.83c-.09,0-.17-.03-.24-.1s-.1-.15-.1-.25v-1.12c0-.1.03-.19.1-.26s.14-.11.24-.11h1.47c.1,0,.19.04.26.11.07.07.1.16.1.26v1.12c0,.1-.03.19-.1.25-.07.07-.16.1-.26.1h-1.47ZM59.13,62.23c-.09,0-.17-.03-.24-.1s-.1-.15-.1-.25v-6.58c0-.1.03-.19.1-.25s.14-.1.24-.1h1.4c.1,0,.19.03.25.1.06.07.1.15.1.25v6.58c0,.1-.03.19-.1.25-.07.07-.15.1-.25.1h-1.4Z"/>
          <path class="cls-3" d="M63.1,62.23c-.09,0-.17-.03-.24-.1s-.1-.15-.1-.25v-6.58c0-.1.03-.19.1-.25s.14-.1.24-.1h1.37c.1,0,.19.03.25.1s.1.15.1.25v.55c.24-.3.56-.55.94-.74s.85-.29,1.4-.29,1.03.12,1.45.37c.42.25.74.61.98,1.08.24.47.36,1.04.36,1.71v3.91c0,.1-.04.19-.1.25s-.15.1-.25.1h-1.48c-.1,0-.19-.03-.25-.1-.07-.07-.1-.15-.1-.25v-3.82c0-.5-.12-.88-.36-1.16-.24-.28-.59-.41-1.04-.41s-.79.14-1.05.41c-.26.28-.39.66-.39,1.16v3.82c0,.1-.03.19-.1.25s-.14.1-.24.1h-1.48Z"/>
          <path class="cls-3" d="M75.23,62.23c-.1,0-.19-.03-.25-.1s-.1-.15-.1-.25v-9.1c0-.1.03-.19.1-.25s.15-.1.25-.1h1.55c.1,0,.19.03.25.1s.1.15.1.25v7.57h4.34c.1,0,.19.03.25.1.07.07.1.15.1.25v1.18c0,.1-.03.19-.1.25s-.15.1-.25.1h-6.24Z"/>
          <path class="cls-3" d="M85.24,62.37c-.49,0-.94-.1-1.33-.29-.39-.19-.7-.45-.94-.78-.23-.33-.35-.69-.35-1.09,0-.66.27-1.19.81-1.57s1.24-.64,2.12-.78l1.83-.27v-.25c0-.36-.08-.64-.25-.84-.17-.2-.46-.29-.88-.29-.31,0-.56.06-.74.18-.19.12-.33.28-.43.48-.07.12-.18.18-.32.18h-1.33c-.1,0-.18-.03-.24-.09-.06-.06-.08-.13-.07-.22,0-.16.06-.34.18-.56.12-.21.31-.43.56-.64s.57-.39.97-.53.87-.21,1.44-.21,1.09.07,1.51.21.76.34,1.01.59.44.54.56.88c.12.33.18.69.18,1.07v4.33c0,.1-.03.19-.1.25s-.15.1-.25.1h-1.37c-.09,0-.17-.03-.24-.1-.07-.07-.1-.15-.1-.25v-.52c-.12.18-.28.34-.49.5-.21.15-.45.28-.73.37s-.62.14-1,.14ZM85.8,60.91c.31,0,.58-.06.83-.2.24-.13.43-.33.57-.6.14-.27.21-.61.21-1.02v-.24l-1.3.21c-.5.08-.87.21-1.11.38-.23.17-.35.37-.35.62,0,.18.05.33.16.46.11.13.25.23.43.29s.36.1.56.1Z"/>
          <path class="cls-3" d="M91.69,62.23c-.09,0-.17-.03-.24-.1s-.1-.15-.1-.25v-6.58c0-.1.03-.19.1-.25s.14-.1.24-.1h1.37c.1,0,.19.03.25.1s.1.15.1.25v.55c.24-.3.56-.55.94-.74s.85-.29,1.4-.29,1.03.12,1.45.37c.42.25.74.61.98,1.08.24.47.36,1.04.36,1.71v3.91c0,.1-.04.19-.1.25s-.15.1-.25.1h-1.48c-.1,0-.19-.03-.25-.1-.07-.07-.1-.15-.1-.25v-3.82c0-.5-.12-.88-.36-1.16-.24-.28-.59-.41-1.04-.41s-.79.14-1.05.41c-.26.28-.39.66-.39,1.16v3.82c0,.1-.03.19-.1.25s-.14.1-.24.1h-1.48Z"/>
          <path class="cls-3" d="M103.77,65.31c-.69,0-1.26-.09-1.72-.27-.46-.18-.82-.4-1.08-.66-.27-.26-.46-.51-.57-.76-.11-.25-.17-.45-.18-.59,0-.1.02-.19.1-.25s.16-.1.25-.1h1.5c.08,0,.16.02.22.06.06.04.11.11.15.22.05.11.11.23.2.36.08.13.21.23.39.32.17.08.4.13.69.13.33,0,.6-.05.81-.14.21-.09.38-.25.48-.48.11-.22.16-.53.16-.91v-.94c-.22.24-.51.44-.85.6-.34.16-.76.24-1.25.24s-.91-.08-1.28-.23c-.37-.15-.67-.37-.92-.66-.24-.28-.43-.63-.56-1.03-.13-.4-.21-.85-.22-1.36,0-.25,0-.5,0-.74.02-.49.09-.93.22-1.33.13-.4.32-.75.56-1.04.24-.29.55-.52.92-.69.37-.16.8-.25,1.28-.25.51,0,.95.1,1.32.29.36.2.66.44.89.73v-.53c0-.09.03-.18.1-.25.07-.07.15-.11.24-.11h1.37c.09,0,.17.04.24.11.07.07.11.15.11.25v6.73c.01.7-.12,1.29-.39,1.78-.27.49-.67.86-1.2,1.11-.53.26-1.18.38-1.97.38ZM103.7,60.49c.34,0,.61-.08.82-.23.21-.15.37-.35.47-.59.1-.24.16-.49.17-.75,0-.1.01-.25.01-.44s0-.34-.01-.44c0-.26-.07-.51-.17-.75-.1-.24-.26-.43-.47-.58-.21-.15-.48-.22-.82-.22s-.63.08-.84.23c-.21.15-.35.36-.45.61s-.15.53-.17.83c0,.22,0,.44,0,.66.02.31.07.59.17.84s.24.46.45.61c.21.15.49.23.84.23Z"/>
          <path class="cls-3" d="M111.92,62.37c-.54,0-1.02-.12-1.43-.37-.42-.25-.74-.61-.97-1.08-.23-.47-.34-1.04-.34-1.72v-3.91c0-.1.03-.19.1-.25s.14-.1.24-.1h1.48c.1,0,.19.03.25.1s.1.15.1.25v3.82c0,1.05.46,1.57,1.37,1.57.44,0,.79-.14,1.04-.41.26-.28.38-.66.38-1.16v-3.82c0-.1.03-.19.1-.25s.15-.1.25-.1h1.48c.09,0,.17.03.24.1.07.07.1.15.1.25v6.58c0,.1-.03.19-.1.25-.06.07-.14.1-.24.1h-1.37c-.1,0-.19-.03-.25-.1s-.1-.15-.1-.25v-.55c-.24.34-.55.59-.94.77s-.85.27-1.4.27Z"/>
          <path class="cls-3" d="M120.36,62.37c-.5,0-.94-.1-1.33-.29-.39-.19-.71-.45-.94-.78-.23-.33-.35-.69-.35-1.09,0-.66.27-1.19.8-1.57s1.24-.64,2.12-.78l1.83-.27v-.25c0-.36-.08-.64-.25-.84-.17-.2-.46-.29-.88-.29-.31,0-.56.06-.74.18s-.33.28-.43.48c-.08.12-.18.18-.32.18h-1.33c-.1,0-.18-.03-.24-.09-.06-.06-.08-.13-.07-.22,0-.16.06-.34.18-.56s.31-.43.56-.64.57-.39.97-.53c.39-.14.87-.21,1.44-.21s1.09.07,1.51.21.76.34,1.01.59.44.54.56.88.18.69.18,1.07v4.33c0,.1-.03.19-.1.25s-.15.1-.25.1h-1.37c-.09,0-.17-.03-.24-.1s-.1-.15-.1-.25v-.52c-.12.18-.29.34-.49.5s-.45.28-.73.37c-.29.09-.62.14-1,.14ZM120.92,60.91c.31,0,.58-.06.83-.2.24-.13.43-.33.57-.6.14-.27.21-.61.21-1.02v-.24l-1.3.21c-.5.08-.87.21-1.11.38s-.35.37-.35.62c0,.18.05.33.16.46s.25.23.43.29c.18.07.36.1.56.1Z"/>
          <path class="cls-3" d="M129.9,65.31c-.69,0-1.26-.09-1.72-.27-.46-.18-.82-.4-1.08-.66-.27-.26-.46-.51-.57-.76s-.17-.45-.18-.59c0-.1.02-.19.1-.25.08-.07.16-.1.25-.1h1.5c.08,0,.16.02.22.06s.11.11.15.22c.05.11.11.23.2.36.08.13.21.23.38.32s.4.13.69.13c.33,0,.6-.05.81-.14.21-.09.38-.25.48-.48.11-.22.16-.53.16-.91v-.94c-.22.24-.51.44-.85.6-.34.16-.76.24-1.25.24s-.91-.08-1.28-.23c-.37-.15-.67-.37-.92-.66-.24-.28-.43-.63-.56-1.03s-.21-.85-.22-1.36c0-.25,0-.5,0-.74.02-.49.09-.93.22-1.33s.32-.75.56-1.04c.24-.29.55-.52.92-.69.37-.16.8-.25,1.28-.25.51,0,.95.1,1.32.29.36.2.66.44.9.73v-.53c0-.09.03-.18.1-.25.07-.07.15-.11.24-.11h1.37c.09,0,.17.04.25.11.07.07.1.15.1.25v6.73c.01.7-.12,1.29-.39,1.78s-.67.86-1.2,1.11c-.53.26-1.18.38-1.97.38ZM129.83,60.49c.34,0,.61-.08.82-.23.21-.15.37-.35.47-.59.1-.24.16-.49.17-.75,0-.1.01-.25.01-.44s0-.34-.01-.44c0-.26-.07-.51-.17-.75-.1-.24-.26-.43-.47-.58s-.48-.22-.82-.22c-.35,0-.63.08-.84.23-.21.15-.35.36-.45.61-.09.25-.15.53-.17.83,0,.22,0,.44,0,.66.02.31.07.59.17.84.09.25.24.46.45.61.21.15.49.23.84.23Z"/>
          <path class="cls-3" d="M138.62,62.37c-1.07,0-1.92-.3-2.55-.9s-.96-1.46-1-2.6v-.6c.04-.72.2-1.34.49-1.86.29-.52.69-.91,1.22-1.19.52-.28,1.13-.41,1.83-.41.78,0,1.44.16,1.97.48.53.32.92.76,1.19,1.32.27.56.4,1.19.4,1.91v.32c0,.09-.04.17-.1.24-.07.07-.15.1-.25.1h-4.58v.11c0,.3.07.57.17.82s.26.45.46.59c.2.15.44.22.72.22.23,0,.42-.03.57-.1.15-.06.27-.14.37-.24.1-.09.17-.17.22-.24.08-.09.15-.15.2-.17.05-.02.13-.04.25-.04h1.46c.09,0,.17.03.23.08.06.05.09.12.08.22,0,.15-.09.33-.23.55-.14.22-.36.43-.64.64-.28.21-.63.38-1.04.52-.42.14-.89.21-1.44.21ZM137.23,57.9h2.74v-.03c0-.34-.05-.63-.16-.88-.11-.25-.26-.44-.47-.58-.21-.14-.45-.21-.74-.21s-.54.07-.74.21c-.21.14-.36.33-.47.58-.11.25-.16.54-.16.88v.03Z"/>
          <path class="cls-3" d="M147.72,62.23c-.1,0-.19-.03-.25-.1s-.1-.15-.1-.25v-9.1c0-.1.03-.19.1-.25s.15-.1.25-.1h1.55c.1,0,.19.03.25.1.06.07.1.15.1.25v7.57h4.34c.1,0,.19.03.25.1.07.07.1.15.1.25v1.18c0,.1-.03.19-.1.25s-.15.1-.25.1h-6.24Z"/>
          <path class="cls-3" d="M158.75,62.37c-1.07,0-1.92-.3-2.55-.9s-.96-1.46-1-2.6v-.6c.04-.72.2-1.34.49-1.86.29-.52.69-.91,1.22-1.19.52-.28,1.13-.41,1.83-.41.78,0,1.44.16,1.97.48.53.32.92.76,1.19,1.32.27.56.4,1.19.4,1.91v.32c0,.09-.04.17-.1.24-.07.07-.15.1-.25.1h-4.58v.11c0,.3.07.57.17.82s.26.45.46.59c.2.15.44.22.72.22.23,0,.42-.03.57-.1.15-.06.27-.14.37-.24.1-.09.17-.17.22-.24.08-.09.15-.15.2-.17.05-.02.13-.04.25-.04h1.46c.09,0,.17.03.23.08.06.05.09.12.08.22,0,.15-.09.33-.23.55-.14.22-.36.43-.64.64-.28.21-.63.38-1.04.52-.42.14-.89.21-1.44.21ZM157.36,57.9h2.74v-.03c0-.34-.05-.63-.16-.88-.11-.25-.26-.44-.47-.58-.21-.14-.45-.21-.74-.21s-.54.07-.74.21c-.21.14-.36.33-.47.58-.11.25-.16.54-.16.88v.03Z"/>
          <path class="cls-3" d="M165.97,62.37c-.5,0-.94-.1-1.33-.29-.39-.19-.71-.45-.94-.78-.23-.33-.35-.69-.35-1.09,0-.66.27-1.19.8-1.57s1.24-.64,2.12-.78l1.83-.27v-.25c0-.36-.08-.64-.25-.84-.17-.2-.46-.29-.88-.29-.31,0-.56.06-.74.18s-.33.28-.43.48c-.08.12-.18.18-.32.18h-1.33c-.1,0-.18-.03-.24-.09-.06-.06-.08-.13-.07-.22,0-.16.06-.34.18-.56s.31-.43.56-.64.57-.39.97-.53c.39-.14.87-.21,1.44-.21s1.09.07,1.51.21.76.34,1.01.59.44.54.56.88.18.69.18,1.07v4.33c0,.1-.03.19-.1.25s-.15.1-.25.1h-1.37c-.09,0-.17-.03-.24-.1s-.1-.15-.1-.25v-.52c-.12.18-.29.34-.49.5s-.45.28-.73.37c-.29.09-.62.14-1,.14ZM166.53,60.91c.31,0,.58-.06.83-.2.24-.13.43-.33.57-.6.14-.27.21-.61.21-1.02v-.24l-1.3.21c-.5.08-.87.21-1.11.38s-.35.37-.35.62c0,.18.05.33.16.46s.25.23.43.29c.18.07.36.1.56.1Z"/>
          <path class="cls-3" d="M172.43,62.23c-.09,0-.17-.03-.24-.1-.07-.07-.1-.15-.1-.25v-6.58c0-.09.03-.18.1-.25.06-.07.14-.11.24-.11h1.37c.09,0,.17.04.25.11.07.07.11.15.11.25v.56c.23-.29.52-.51.86-.67.34-.16.74-.24,1.18-.24h.6c.09,0,.17.03.24.1s.1.15.1.25v1.2c0,.1-.03.19-.1.25s-.15.1-.24.1h-1.23c-.41,0-.73.11-.97.34-.23.23-.35.55-.35.97v3.71c0,.1-.03.19-.1.25-.07.07-.15.1-.25.1h-1.47Z"/>
          <path class="cls-3" d="M178.66,62.23c-.09,0-.17-.03-.24-.1-.07-.07-.1-.15-.1-.25v-6.58c0-.1.03-.19.1-.25.06-.07.14-.1.24-.1h1.37c.1,0,.19.03.25.1s.1.15.1.25v.55c.24-.3.55-.55.94-.74s.85-.29,1.4-.29,1.03.12,1.45.37c.42.25.74.61.98,1.08.24.47.36,1.04.36,1.71v3.91c0,.1-.04.19-.11.25s-.15.1-.25.1h-1.48c-.1,0-.19-.03-.25-.1s-.1-.15-.1-.25v-3.82c0-.5-.12-.88-.36-1.16-.24-.28-.59-.41-1.04-.41s-.79.14-1.05.41c-.26.28-.39.66-.39,1.16v3.82c0,.1-.03.19-.1.25-.07.07-.15.1-.24.1h-1.48Z"/>
          <path class="cls-3" d="M187.62,53.83c-.09,0-.17-.03-.24-.1-.07-.07-.1-.15-.1-.25v-1.12c0-.1.03-.19.1-.26.06-.07.14-.11.24-.11h1.47c.1,0,.19.04.26.11.07.07.1.16.1.26v1.12c0,.1-.04.19-.1.25-.07.07-.16.1-.26.1h-1.47ZM187.66,62.23c-.09,0-.17-.03-.24-.1-.07-.07-.1-.15-.1-.25v-6.58c0-.1.03-.19.1-.25.06-.07.14-.1.24-.1h1.4c.1,0,.19.03.25.1s.1.15.1.25v6.58c0,.1-.03.19-.1.25s-.15.1-.25.1h-1.4Z"/>
          <path class="cls-3" d="M191.64,62.23c-.09,0-.17-.03-.24-.1-.07-.07-.1-.15-.1-.25v-6.58c0-.1.03-.19.1-.25.06-.07.14-.1.24-.1h1.37c.1,0,.19.03.25.1s.1.15.1.25v.55c.24-.3.55-.55.94-.74s.85-.29,1.4-.29,1.03.12,1.45.37c.42.25.74.61.98,1.08.24.47.36,1.04.36,1.71v3.91c0,.1-.04.19-.11.25s-.15.1-.25.1h-1.48c-.1,0-.19-.03-.25-.1s-.1-.15-.1-.25v-3.82c0-.5-.12-.88-.36-1.16-.24-.28-.59-.41-1.04-.41s-.79.14-1.05.41c-.26.28-.39.66-.39,1.16v3.82c0,.1-.03.19-.1.25-.07.07-.15.1-.24.1h-1.48Z"/>
          <path class="cls-3" d="M203.72,65.31c-.69,0-1.26-.09-1.72-.27-.46-.18-.82-.4-1.08-.66-.27-.26-.46-.51-.57-.76s-.17-.45-.18-.59c0-.1.02-.19.1-.25.08-.07.16-.1.25-.1h1.5c.08,0,.16.02.22.06s.11.11.15.22c.05.11.11.23.2.36.08.13.21.23.38.32s.4.13.69.13c.33,0,.6-.05.81-.14.21-.09.38-.25.48-.48.11-.22.16-.53.16-.91v-.94c-.22.24-.51.44-.85.6-.34.16-.76.24-1.25.24s-.91-.08-1.28-.23c-.37-.15-.67-.37-.92-.66-.24-.28-.43-.63-.56-1.03s-.21-.85-.22-1.36c0-.25,0-.5,0-.74.02-.49.09-.93.22-1.33s.32-.75.56-1.04c.24-.29.55-.52.92-.69.37-.16.8-.25,1.28-.25.51,0,.95.1,1.32.29.36.2.66.44.9.73v-.53c0-.09.03-.18.1-.25.07-.07.15-.11.24-.11h1.37c.09,0,.17.04.25.11.07.07.1.15.1.25v6.73c.01.7-.12,1.29-.39,1.78s-.67.86-1.2,1.11c-.53.26-1.18.38-1.97.38ZM203.65,60.49c.34,0,.61-.08.82-.23.21-.15.37-.35.47-.59.1-.24.16-.49.17-.75,0-.1.01-.25.01-.44s0-.34-.01-.44c0-.26-.07-.51-.17-.75-.1-.24-.26-.43-.47-.58s-.48-.22-.82-.22c-.35,0-.63.08-.84.23-.21.15-.35.36-.45.61-.09.25-.15.53-.17.83,0,.22,0,.44,0,.66.02.31.07.59.17.84.09.25.24.46.45.61.21.15.49.23.84.23Z"/>
        </g>
      </g>
    </g>
  </g>
</svg>