<?xml version="1.0" encoding="UTF-8"?>
<svg id="Layer_1" data-name="Layer 1" xmlns="http://www.w3.org/2000/svg" viewBox="0 0 1040 1040">
  <defs>
    <style>
      .cls-1 {
        fill: #5fb446;
      }
    </style>
  </defs>
  <path class="cls-1" d="M203.8,140.33c16.94,0,32.86,6.57,44.74,18.45l96.56,96.81,52.58,52.58,85.19-85.19-52.58-52.58h0l-96.81-96.56c-34.63-34.63-80.64-53.84-129.68-53.84s-95.3,19.21-129.93,53.84c-69.26,69.26-69.26,190.34,0,259.61l271.23,271.23h0l52.33,52.58,85.19-85.19-52.33-52.33h0L159.06,248.27c-11.88-12.13-18.45-27.81-18.45-44.74s6.57-32.86,18.45-44.74c11.88-11.88,27.81-18.45,44.74-18.45ZM965.68,706.05l-271.23-271.23-52.58-52.58-85.19,85.19,52.33,52.58,271.23,271.23c11.88,11.88,18.45,27.81,18.45,44.74s-6.57,32.86-18.45,44.74c-11.88,11.88-27.81,18.45-44.74,18.45s-32.61-6.57-44.74-18.45l-96.56-96.81-52.33-52.58-85.19,85.19,52.58,52.58,96.81,96.56c34.63,34.63,80.64,53.84,129.68,53.84s95.05-19.21,129.68-53.84c69.26-69.26,69.26-190.34,0-259.61h.25Z"/>
  <path class="cls-1" d="M965.68,73.85c-69.26-69.26-190.34-69.26-259.61,0l-271.23,271.23h0l-52.58,52.07,85.19,85.19,52.33-52.33h.25l271.23-270.98c11.88-11.88,27.81-18.45,44.74-18.45s32.86,6.57,44.74,18.45c11.88,11.88,18.45,27.81,18.45,44.74s-6.57,32.61-18.45,44.74l-96.81,96.56h0l-52.33,52.33,85.19,85.19,52.33-52.58,96.81-96.56c34.63-34.63,53.84-80.64,53.84-129.68s-18.96-95.05-53.84-129.68l-.25-.25ZM519.52,609.24h0l-271.23,271.23c-11.88,11.88-27.81,18.45-44.74,18.45s-32.86-6.57-44.74-18.45c-11.88-11.88-18.45-27.81-18.45-44.74s6.57-32.86,18.45-44.74l96.81-96.56h0l52.58-52.33-85.19-85.19-52.58,52.33-96.81,96.81c-34.63,34.63-53.84,80.89-53.84,129.68s19.21,95.05,53.84,129.68c69.26,69.26,190.34,69.26,259.61,0l271.23-271.23h0l52.58-52.33-85.19-85.19-52.33,52.33v.25Z"/>
</svg>