<?xml version="1.0" encoding="UTF-8"?>
<svg id="_レイヤー_2" data-name="レイヤー 2" xmlns="http://www.w3.org/2000/svg" viewBox="0 0 207.34 46.53">
  <defs>
    <style>
      .cls-1 {
        isolation: isolate;
      }

      .cls-2 {
        fill: #5fb636;
      }

      .cls-2, .cls-3 {
        stroke-width: 0px;
      }

      .cls-3 {
        fill: #573f1c;
      }
    </style>
  </defs>
  <g id="_レイヤー_1-2" data-name="レイヤー 1">
    <g>
      <path class="cls-2" d="M7.27,4.76c.67,0,1.3.26,1.77.73l3.82,3.83,2.08,2.08,3.37-3.37-2.08-2.08h0s-3.83-3.82-3.83-3.82c-1.37-1.37-3.19-2.13-5.13-2.13S3.5.76,2.13,2.13c-2.74,2.74-2.74,7.53,0,10.27l10.73,10.73h0s2.07,2.08,2.07,2.08l3.37-3.37-2.07-2.07h0S5.5,9.03,5.5,9.03c-.47-.48-.73-1.1-.73-1.77s.26-1.3.73-1.77c.47-.47,1.1-.73,1.77-.73ZM37.41,27.14l-10.73-10.73-2.08-2.08-3.37,3.37,2.07,2.08,10.73,10.73c.47.47.73,1.1.73,1.77s-.26,1.3-.73,1.77c-.47.47-1.1.73-1.77.73s-1.29-.26-1.77-.73l-3.82-3.83-2.07-2.08-3.37,3.37,2.08,2.08,3.83,3.82c1.37,1.37,3.19,2.13,5.13,2.13s3.76-.76,5.13-2.13c2.74-2.74,2.74-7.53,0-10.27Z"/>
      <path class="cls-2" d="M37.41,2.13c-2.74-2.74-7.53-2.74-10.27,0l-10.73,10.73h0s-2.08,2.06-2.08,2.06l3.37,3.37,2.07-2.07h.01s10.73-10.72,10.73-10.72c.47-.47,1.1-.73,1.77-.73s1.3.26,1.77.73c.47.47.73,1.1.73,1.77s-.26,1.29-.73,1.77l-3.83,3.82h0s-2.07,2.07-2.07,2.07l3.37,3.37,2.07-2.08,3.83-3.82c1.37-1.37,2.13-3.19,2.13-5.13s-.75-3.76-2.13-5.13ZM19.76,23.31h0l-10.73,10.73c-.47.47-1.1.73-1.77.73s-1.3-.26-1.77-.73c-.47-.47-.73-1.1-.73-1.77s.26-1.3.73-1.77l3.83-3.82h0l2.08-2.07-3.37-3.37-2.08,2.07-3.83,3.83c-1.37,1.37-2.13,3.2-2.13,5.13s.76,3.76,2.13,5.13c2.74,2.74,7.53,2.74,10.27,0l10.73-10.73h0l2.08-2.07-3.37-3.37-2.07,2.07Z"/>
      <g id="Prices_of_Popular_Plans" data-name="Prices of Popular Plans" class="cls-1">
        <g class="cls-1">
          <path class="cls-3" d="M49.47,36.41c-.34,0-.61-.11-.83-.32-.21-.21-.32-.49-.32-.83V5.36c0-.34.11-.61.32-.83.21-.21.49-.32.83-.32h5.11c.34,0,.61.11.83.32.21.21.32.49.32.83v24.89h14.26c.34,0,.61.11.83.32.21.21.32.49.32.83v3.86c0,.34-.11.61-.32.83-.21.21-.49.32-.83.32h-20.52Z"/>
          <path class="cls-3" d="M75.83,8.81c-.31,0-.57-.11-.78-.32-.21-.21-.32-.49-.32-.83v-3.68c0-.34.11-.62.32-.85.21-.23.48-.34.78-.34h4.83c.34,0,.62.12.85.34.23.23.35.51.35.85v3.68c0,.34-.12.61-.35.83-.23.21-.51.32-.85.32h-4.83ZM75.97,36.41c-.31,0-.57-.11-.78-.32-.22-.21-.32-.49-.32-.83V13.64c0-.34.11-.61.32-.83.21-.21.48-.32.78-.32h4.6c.34,0,.61.11.83.32.21.21.32.49.32.83v21.62c0,.34-.11.61-.32.83s-.49.32-.83.32h-4.6Z"/>
          <path class="cls-3" d="M88.57,36.41c-.31,0-.57-.11-.78-.32-.22-.21-.32-.49-.32-.83V13.64c0-.34.11-.61.32-.83.21-.21.48-.32.78-.32h4.51c.34,0,.61.11.83.32.21.21.32.49.32.83v1.79c.8-.98,1.82-1.79,3.08-2.44,1.26-.64,2.79-.97,4.6-.97s3.4.41,4.76,1.22c1.36.81,2.44,1.99,3.22,3.54.78,1.55,1.17,3.43,1.17,5.63v12.83c0,.34-.12.61-.35.83-.23.21-.5.32-.8.32h-4.88c-.34,0-.61-.11-.83-.32-.21-.21-.32-.49-.32-.83v-12.56c0-1.62-.39-2.89-1.17-3.79-.78-.9-1.92-1.36-3.43-1.36s-2.59.45-3.45,1.36c-.86.91-1.29,2.17-1.29,3.79v12.56c0,.34-.11.61-.32.83s-.48.32-.78.32h-4.88Z"/>
          <path class="cls-3" d="M127.81,46.53c-2.27,0-4.16-.3-5.66-.9-1.5-.6-2.69-1.32-3.56-2.16s-1.5-1.68-1.86-2.51-.57-1.47-.6-1.93c-.03-.34.08-.61.32-.83.25-.21.52-.32.83-.32h4.92c.28,0,.51.07.71.21.2.14.36.38.48.71.15.37.37.76.64,1.17.28.41.7.76,1.26,1.03.57.28,1.33.41,2.28.41,1.07,0,1.96-.15,2.67-.46.71-.31,1.23-.83,1.59-1.56.35-.74.53-1.73.53-2.99v-3.08c-.74.8-1.66,1.46-2.78,1.98-1.12.52-2.49.78-4.12.78s-3-.25-4.21-.76c-1.21-.51-2.22-1.23-3.01-2.16-.8-.93-1.41-2.06-1.84-3.38-.43-1.32-.67-2.81-.74-4.46-.03-.83-.03-1.64,0-2.44.06-1.59.31-3.05.74-4.37s1.04-2.46,1.84-3.43c.8-.97,1.8-1.72,3.01-2.25,1.21-.54,2.61-.8,4.21-.8,1.69,0,3.13.32,4.32.97,1.2.64,2.18,1.44,2.94,2.39v-1.75c0-.31.11-.58.32-.81.21-.23.48-.34.78-.34h4.51c.31,0,.58.12.8.34s.35.5.35.81l.05,22.13c0,2.3-.45,4.25-1.33,5.84-.89,1.59-2.2,2.81-3.93,3.66-1.73.84-3.89,1.26-6.46,1.26ZM127.58,30.7c1.1,0,2-.25,2.69-.76.69-.51,1.2-1.15,1.54-1.93.34-.78.52-1.6.55-2.46.03-.34.05-.82.05-1.45s-.02-1.11-.05-1.45c-.03-.86-.21-1.68-.55-2.46-.34-.78-.85-1.42-1.54-1.91-.69-.49-1.59-.74-2.69-.74-1.17,0-2.09.25-2.76.76-.67.51-1.17,1.17-1.47,2-.31.83-.49,1.73-.55,2.71-.03.74-.03,1.46,0,2.16.06,1.01.25,1.93.55,2.76s.8,1.5,1.47,2,1.59.76,2.76.76Z"/>
          <path class="cls-3" d="M153.66,36.87c-1.78,0-3.35-.41-4.71-1.22-1.37-.81-2.42-1.99-3.17-3.54-.75-1.55-1.13-3.43-1.13-5.63v-12.83c0-.34.11-.61.32-.83.21-.21.48-.32.78-.32h4.88c.34,0,.61.11.83.32.21.21.32.49.32.83v12.56c0,3.43,1.5,5.15,4.51,5.15,1.44,0,2.58-.45,3.43-1.36.84-.9,1.26-2.17,1.26-3.79v-12.56c0-.34.11-.61.32-.83.21-.21.49-.32.83-.32h4.88c.31,0,.57.11.78.32.21.21.32.49.32.83v21.62c0,.34-.11.61-.32.83s-.48.32-.78.32h-4.51c-.34,0-.61-.11-.83-.32-.21-.21-.32-.49-.32-.83v-1.79c-.8,1.1-1.83,1.95-3.08,2.53-1.26.58-2.79.87-4.6.87Z"/>
          <path class="cls-3" d="M180.85,36.87c-1.63,0-3.08-.31-4.37-.94-1.29-.63-2.32-1.48-3.08-2.55-.77-1.07-1.15-2.27-1.15-3.59,0-2.18.88-3.89,2.64-5.15,1.76-1.26,4.09-2.12,6.97-2.58l6.03-.87v-.83c0-1.2-.28-2.12-.83-2.76-.55-.64-1.52-.97-2.9-.97-1.01,0-1.83.2-2.44.6s-1.09.92-1.43,1.56c-.25.4-.6.6-1.06.6h-4.37c-.34,0-.6-.1-.78-.3-.18-.2-.26-.44-.23-.71,0-.52.2-1.13.6-1.84.4-.71,1.01-1.4,1.84-2.09.83-.69,1.89-1.27,3.17-1.73s2.87-.69,4.74-.69,3.59.23,4.97.69,2.48,1.1,3.31,1.93c.83.83,1.44,1.79,1.84,2.88.4,1.09.6,2.26.6,3.52v14.21c0,.34-.11.61-.32.83-.21.21-.49.32-.83.32h-4.51c-.31,0-.57-.11-.78-.32-.21-.21-.32-.49-.32-.83v-1.7c-.4.58-.94,1.13-1.61,1.63-.67.51-1.48.91-2.42,1.22s-2.03.46-3.29.46ZM182.69,32.08c1.01,0,1.92-.21,2.71-.64.8-.43,1.43-1.09,1.89-1.98.46-.89.69-2.01.69-3.36v-.78l-4.28.69c-1.66.28-2.87.69-3.63,1.24-.77.55-1.15,1.23-1.15,2.02,0,.58.18,1.09.53,1.52.35.43.82.75,1.4.97.58.22,1.2.32,1.84.32Z"/>
          <path class="cls-3" d="M201.64,36.41c-.34,0-.61-.11-.83-.32-.22-.21-.32-.49-.32-.83V4.9c0-.34.11-.61.32-.83.21-.21.49-.32.83-.32h4.6c.31,0,.57.11.78.32.21.21.32.49.32.83v30.36c0,.34-.11.61-.32.83s-.48.32-.78.32h-4.6Z"/>
        </g>
      </g>
    </g>
  </g>
</svg>